<svg width="24" height="24" viewBox="0 0 24 24" fill="none" xmlns="http://www.w3.org/2000/svg">
<rect width="24" height="24" rx="12" fill="#0081A7"/>
<path d="M9.0383 16.168C7.7743 16.168 6.7303 15.748 5.9063 14.908C5.0823 14.068 4.6703 13.032 4.6703 11.8C4.6703 10.56 5.0823 9.524 5.9063 8.692C6.7303 7.852 7.7743 7.432 9.0383 7.432C9.7983 7.432 10.4983 7.612 11.1383 7.972C11.7863 8.324 12.2903 8.804 12.6503 9.412L11.2223 10.24C11.0143 9.864 10.7183 9.572 10.3343 9.364C9.9503 9.148 9.5183 9.04 9.0383 9.04C8.2223 9.04 7.5623 9.296 7.0583 9.808C6.5623 10.32 6.3143 10.984 6.3143 11.8C6.3143 12.608 6.5623 13.268 7.0583 13.78C7.5623 14.292 8.2223 14.548 9.0383 14.548C9.5183 14.548 9.9503 14.444 10.3343 14.236C10.7263 14.02 11.0223 13.728 11.2223 13.36L12.6503 14.188C12.2903 14.796 11.7903 15.28 11.1503 15.64C10.5103 15.992 9.8063 16.168 9.0383 16.168ZM16.5596 7.6C17.3676 7.6 18.0476 7.872 18.5996 8.416C19.1516 8.96 19.4276 9.628 19.4276 10.42C19.4276 11.212 19.1516 11.88 18.5996 12.424C18.0476 12.968 17.3676 13.24 16.5596 13.24H15.0836V16H13.4276V7.6H16.5596ZM16.5596 11.692C16.9116 11.692 17.2036 11.572 17.4356 11.332C17.6676 11.084 17.7836 10.78 17.7836 10.42C17.7836 10.052 17.6676 9.748 17.4356 9.508C17.2036 9.268 16.9116 9.148 16.5596 9.148H15.0836V11.692H16.5596Z" fill="white"/>
</svg>
