<svg width="25" height="24" viewBox="0 0 25 24" fill="none" xmlns="http://www.w3.org/2000/svg">
<path fill-rule="evenodd" clip-rule="evenodd" d="M12.5 0C19.1274 0 24.5 4.59661 24.5 10.2668C24.5 12.2474 23.844 14.0966 22.7085 15.6649C22.6523 15.7542 22.5789 15.8528 22.4863 15.9618L22.4793 15.9699C22.0914 16.4658 21.6546 16.9313 21.1743 17.361C17.8558 20.6382 12.3937 24.54 11.6728 23.938C11.0461 23.4148 12.705 20.8555 10.7911 20.4295C10.6576 20.4132 10.5244 20.3956 10.3924 20.3756L10.3899 20.3754V20.3752C4.76872 19.522 0.5 15.321 0.5 10.2668C0.499827 4.59661 5.8725 0 12.5 0Z" fill="#3ACE01"/>
<path fill-rule="evenodd" clip-rule="evenodd" d="M5.53599 13.5421H7.95621C8.30047 13.5421 8.58204 13.2411 8.58204 12.8733V12.8175C8.58204 12.4497 8.30047 12.1489 7.95621 12.1489H6.21404V7.91379C6.21404 7.54596 5.93246 7.24512 5.5882 7.24512H5.53599C5.19173 7.24512 4.91016 7.54596 4.91016 7.91379V12.8732C4.91016 13.2411 5.19173 13.5421 5.53599 13.5421ZM20.5329 10.4334V10.3776C20.5329 10.0098 20.2512 9.70897 19.907 9.70897H18.1649V8.65018H19.907C20.2512 8.65018 20.5329 8.34933 20.5329 7.98151V7.92572C20.5329 7.5579 20.2512 7.25705 19.907 7.25705H17.4868C17.1425 7.25705 16.8609 7.5579 16.8609 7.92572V12.8852C16.8609 13.253 17.1425 13.5539 17.4868 13.5539H19.907C20.2512 13.5539 20.5329 13.253 20.5329 12.8852V12.8294C20.5329 12.4615 20.2512 12.1607 19.907 12.1607H18.1649V11.1019H19.907C20.2512 11.1021 20.5329 10.8012 20.5329 10.4334ZM15.8785 13.3427L15.8787 13.3424C15.9945 13.2177 16.0596 13.0491 16.0597 12.8734V7.91397C16.0597 7.54615 15.7781 7.2453 15.4338 7.2453H15.3815C15.0373 7.2453 14.7557 7.54615 14.7557 7.91397V10.8252L12.4936 7.58343C12.3855 7.38185 12.1821 7.2453 11.9502 7.2453H11.898C11.5537 7.2453 11.2721 7.54615 11.2721 7.91397V12.8734C11.2721 13.2412 11.5536 13.5422 11.898 13.5422H11.9502C12.2945 13.5422 12.576 13.2412 12.576 12.8734V9.90768L14.8544 13.2326C14.8684 13.2559 14.8838 13.2783 14.9003 13.2996L14.9004 13.2998C14.963 13.391 15.0486 13.4535 15.144 13.4918C15.2174 13.5241 15.2976 13.5421 15.3815 13.5421H15.4337C15.5357 13.5421 15.6361 13.5153 15.7261 13.464C15.7887 13.4322 15.8414 13.3911 15.8785 13.3427ZM9.71301 13.5421H9.76522C10.1095 13.5421 10.3911 13.2411 10.3911 12.8733V7.91388C10.3911 7.54606 10.1095 7.24521 9.76522 7.24521H9.71301C9.36875 7.24521 9.08709 7.54606 9.08709 7.91388V12.8733C9.08709 13.2411 9.36875 13.5421 9.71301 13.5421Z" fill="white"/>
</svg>
