<svg width="120" height="133" viewBox="0 0 120 133" fill="none" xmlns="http://www.w3.org/2000/svg">
<path d="M110.44 0H64.5498C59.5598 0 55.5098 4.05 55.5098 9.04V88.82H64.5098V53.97C64.5098 53.97 64.5398 53.97 64.5598 53.97H110.45C115.44 53.97 119.49 49.92 119.49 44.93V9.04C119.49 4.05 115.44 0 110.45 0H110.44ZM110.49 44.58C110.49 45.91 109.41 46.98 108.09 46.98H66.9098C65.5798 46.98 64.5098 45.9 64.5098 44.58V9.41C64.5098 8.08 65.5898 7.01 66.9098 7.01H108.09C109.42 7.01 110.49 8.09 110.49 9.41V44.58Z" fill="#1F1F1F"/>
<path d="M15.1998 92.98C12.6098 92.98 10.5098 90.88 10.5098 88.29V58.68C10.5098 56.09 12.6098 53.99 15.1998 53.99H52.5298V45.99H6.22977C3.06977 45.99 0.509766 48.55 0.509766 51.71V95.25C0.509766 98.41 3.06977 100.97 6.22977 100.97H55.0998C58.2598 100.97 63.4798 98.41 63.4798 95.25V92.98H15.1998Z" fill="#1F1F1F"/>
<path d="M25.4504 126.85C25.4504 126.85 24.5404 122.66 27.3304 118.55C27.3304 118.55 28.8004 116.04 37.1004 117.02C37.1004 117.02 40.8704 117.7 39.4004 121.83C39.4004 121.83 37.0904 132.3 32.5204 132.02C32.5204 132.02 35.7804 123.2 35.4204 120.02C35.4204 120.02 27.6804 118 28.4404 125.53C28.4404 125.53 28.9304 128.67 25.4404 126.86L25.4504 126.85Z" fill="#1F1F1F"/>
<path d="M41.5 125.8H53.36C53.36 125.8 50.47 119.59 41.5 125.8Z" fill="#1F1F1F"/>
<path d="M78.6211 119.87H90.4811C90.4811 119.87 87.5911 113.66 78.6211 119.87Z" fill="#1F1F1F"/>
<path d="M56.9902 119.8H66.6902C66.6902 119.8 65.9902 125.81 62.7102 132.01H66.6902C66.6902 132.01 72.6202 120.46 69.6202 116.78C69.6202 116.78 60.2002 115.68 56.9902 119.8Z" fill="#1F1F1F"/>
<path d="M73.6811 121.21C74.6807 121.21 75.4911 120.4 75.4911 119.4C75.4911 118.4 74.6807 117.59 73.6811 117.59C72.6815 117.59 71.8711 118.4 71.8711 119.4C71.8711 120.4 72.6815 121.21 73.6811 121.21Z" fill="#1F1F1F"/>
<path d="M76.4492 123.92H85.5192C85.5192 123.92 85.8692 127.63 83.4992 132.02C83.4992 132.02 88.7292 133.26 89.9892 123.05C89.9892 123.05 90.5492 121.09 86.2892 121.22C86.2892 121.22 79.2392 121.28 76.4492 123.93V123.92Z" fill="#1F1F1F"/>
</svg>
