<svg width="25" height="24" viewBox="0 0 25 24" fill="none" xmlns="http://www.w3.org/2000/svg">
<g clip-path="url(#clip0_53_3032)">
<path d="M8.5 7C8.5 8.06087 8.92143 9.07828 9.67157 9.82843C10.4217 10.5786 11.4391 11 12.5 11C13.5609 11 14.5783 10.5786 15.3284 9.82843C16.0786 9.07828 16.5 8.06087 16.5 7C16.5 5.93913 16.0786 4.92172 15.3284 4.17157C14.5783 3.42143 13.5609 3 12.5 3C11.4391 3 10.4217 3.42143 9.67157 4.17157C8.92143 4.92172 8.5 5.93913 8.5 7Z" stroke="#403D58" stroke-width="1.5" stroke-linecap="round" stroke-linejoin="round"/>
<path d="M6.5 21V19C6.5 17.9391 6.92143 16.9217 7.67157 16.1716C8.42172 15.4214 9.43913 15 10.5 15H14.5C15.5609 15 16.5783 15.4214 17.3284 16.1716C18.0786 16.9217 18.5 17.9391 18.5 19V21" stroke="#403D58" stroke-width="1.5" stroke-linecap="round" stroke-linejoin="round"/>
</g>
<defs>
<clipPath id="clip0_53_3032">
<rect width="24" height="24" fill="white" transform="translate(0.5)"/>
</clipPath>
</defs>
</svg>
