<svg width="24" height="24" viewBox="0 0 24 24" fill="none" xmlns="http://www.w3.org/2000/svg">
<rect width="24" height="24" rx="12" fill="#9BA2AD"/>
<path d="M9.32887 7.6C10.1369 7.6 10.8169 7.872 11.3689 8.416C11.9209 8.96 12.1969 9.628 12.1969 10.42C12.1969 11.212 11.9209 11.88 11.3689 12.424C10.8169 12.968 10.1369 13.24 9.32887 13.24H7.85287V16H6.19687V7.6H9.32887ZM9.32887 11.692C9.68087 11.692 9.97287 11.572 10.2049 11.332C10.4369 11.084 10.5529 10.78 10.5529 10.42C10.5529 10.052 10.4369 9.748 10.2049 9.508C9.97287 9.268 9.68087 9.148 9.32887 9.148H7.85287V11.692H9.32887ZM18.4387 7.6V9.184H16.1707V16H14.5147V9.184H12.2587V7.6H18.4387Z" fill="white"/>
</svg>
