<svg width="25" height="24" viewBox="0 0 25 24" fill="none" xmlns="http://www.w3.org/2000/svg">
<g clip-path="url(#clip0_53_3026)">
<path d="M11.9993 21H9.07332C8.35672 21 7.6638 20.7434 7.11995 20.2768C6.5761 19.8102 6.21724 19.1643 6.10832 18.456L4.85332 10.304C4.80949 10.019 4.82781 9.72786 4.90702 9.45059C4.98624 9.17331 5.12448 8.91645 5.31226 8.6976C5.50005 8.47876 5.73293 8.30311 5.99496 8.1827C6.25698 8.06229 6.54195 7.99997 6.83032 8H18.1693C18.4577 7.99997 18.7426 8.06229 19.0047 8.1827C19.2667 8.30311 19.4996 8.47876 19.6874 8.6976C19.8752 8.91645 20.0134 9.17331 20.0926 9.45059C20.1718 9.72786 20.1901 10.019 20.1463 10.304L19.6463 13.552" stroke="#403D58" stroke-width="1.5" stroke-linecap="round" stroke-linejoin="round"/>
<path d="M9.5 11V6C9.5 5.20435 9.81607 4.44129 10.3787 3.87868C10.9413 3.31607 11.7044 3 12.5 3C13.2956 3 14.0587 3.31607 14.6213 3.87868C15.1839 4.44129 15.5 5.20435 15.5 6V11" stroke="#403D58" stroke-width="1.5" stroke-linecap="round" stroke-linejoin="round"/>
<path d="M15.5 19L17.5 21L21.5 17" stroke="#403D58" stroke-width="1.5" stroke-linecap="round" stroke-linejoin="round"/>
</g>
<defs>
<clipPath id="clip0_53_3026">
<rect width="24" height="24" fill="white" transform="translate(0.5)"/>
</clipPath>
</defs>
</svg>
